<svg xmlns="http://www.w3.org/2000/svg" style="display:none">
  <!-- Heart (outline) from Vector.svg -->
  <symbol id="icon-heart" viewBox="0 0 25 22" fill="none">
    <path d="M21.8989 2.74614C21.3456 2.19257 20.6886 1.75343 19.9655 1.45382C19.2425 1.15421 18.4674 1 17.6847 1C16.902 1 16.127 1.15421 15.4039 1.45382C14.6809 1.75343 14.0239 2.19257 13.4706 2.74614L12.3222 3.89448L11.1739 2.74614C10.0562 1.62848 8.54035 1.00058 6.95973 1.00058C5.37911 1.00058 3.86323 1.62848 2.74557 2.74614C1.6279 3.86381 1 5.37969 1 6.96031C1 8.54093 1.6279 10.0568 2.74557 11.1745L3.8939 12.3228L12.3222 20.7511L20.7506 12.3228L21.8989 11.1745C22.4525 10.6212 22.8916 9.96419 23.1912 9.24111C23.4908 8.51803 23.645 7.74301 23.645 6.96031C23.645 6.17762 23.4908 5.40259 23.1912 4.67951C22.8916 3.95643 22.4525 3.29946 21.8989 2.74614Z"
      stroke="currentColor" stroke-width="2" stroke-linecap="round" stroke-linejoin="round"/>
  </symbol>

  <!-- Heart (filled) - same path but with fill -->
  <symbol id="icon-heart-filled" viewBox="0 0 25 22">
    <path d="M21.8989 2.74614C21.3456 2.19257 20.6886 1.75343 19.9655 1.45382C19.2425 1.15421 18.4674 1 17.6847 1C16.902 1 16.127 1.15421 15.4039 1.45382C14.6809 1.75343 14.0239 2.19257 13.4706 2.74614L12.3222 3.89448L11.1739 2.74614C10.0562 1.62848 8.54035 1.00058 6.95973 1.00058C5.37911 1.00058 3.86323 1.62848 2.74557 2.74614C1.6279 3.86381 1 5.37969 1 6.96031C1 8.54093 1.6279 10.0568 2.74557 11.1745L3.8939 12.3228L12.3222 20.7511L20.7506 12.3228L21.8989 11.1745C22.4525 10.6212 22.8916 9.96419 23.1912 9.24111C23.4908 8.51803 23.645 7.74301 23.645 6.96031C23.645 6.17762 23.4908 5.40259 23.1912 4.67951C22.8916 3.95643 22.4525 3.29946 21.8989 2.74614Z"
      fill="currentColor"/>
  </symbol>

  <!-- Login icon from log-in-01.svg (на майбутнє) -->
  <symbol id="icon-login" viewBox="0 0 20 20" fill="none">
    <path d="M12.5 2.5H13.5C14.9001 2.5 15.6002 2.5 16.135 2.77248C16.6054 3.01217 16.9878 3.39462 17.2275 3.86502C17.5 4.3998 17.5 5.09987 17.5 6.5V13.5C17.5 14.9001 17.5 15.6002 17.2275 16.135C16.9878 16.6054 16.6054 16.9878 16.135 17.2275C15.6002 17.5 14.9001 17.5 13.5 17.5H12.5"
      stroke="currentColor" stroke-width="2" stroke-linecap="round" stroke-linejoin="round"/>
    <path d="M8.33333 5.83325L12.5 9.99992M12.5 9.99992L8.33333 14.1666M12.5 9.99992L2.5 9.99992"
      stroke="currentColor" stroke-width="2" stroke-linecap="round" stroke-linejoin="round"/>
  </symbol>
  
 <symbol id="ukr" viewBox="0 0 32 32">
  <path fill="#FFDA44" d="M32 16c0 8.837-7.163 16-16 16S0 24.837 0 16h32z"/>
  <path fill="#338AF3" d="M0 16C0 7.163 7.163 0 16 0s16 7.163 16 16H0z"/>
</symbol>

</svg>
